<?xml version="1.0" encoding="iso-8859-1"?>
<!-- Generator: Adobe Illustrator 16.0.0, SVG Export Plug-In . SVG Version: 6.00 Build 0)  -->
<!DOCTYPE svg PUBLIC "-//W3C//DTD SVG 1.1//EN" "http://www.w3.org/Graphics/SVG/1.1/DTD/svg11.dtd">
<svg version="1.1" id="Capa_1" xmlns="http://www.w3.org/2000/svg" xmlns:xlink="http://www.w3.org/1999/xlink" x="0px" y="0px"
	 width="501.2px" height="501.199px" viewBox="0 0 501.2 501.199" style="enable-background:new 0 0 501.2 501.199;"
	 xml:space="preserve">
<g>
	<g>
		<path fill="#FF5757" d="M337.543,0c-36.48,0-67.979,23.017-86.942,40.889C231.639,23.017,200.13,0,163.659,0c-22.061,0-42.304,8.3-60.148,24.662
			C76.649,49.285,65.796,84.58,72.939,124.035c11.867,65.561,71.145,130.002,152.856,167.554v127.994l-42.859-42.858
			c-9.333-9.343-24.48-9.343-33.803,0c-9.342,9.342-9.342,24.47,0,33.803l83.672,83.672c4.657,4.667,10.777,7,16.897,7
			c6.121,0,12.241-2.333,16.907-7l87.258-87.258c9.343-9.343,9.343-24.47,0-33.803c-9.333-9.343-24.479-9.343-33.803,0
			l-46.455,46.444V286.55c84.265-37.781,143.036-99.976,154.77-164.791c6.903-38.135-3.988-72.627-30.687-97.088
			C379.848,8.3,359.604,0,337.543,0z M381.331,113.239c-7.028,38.833-47.277,97.059-137.509,134.075
			c-80.172-37.083-116.863-93.253-123.844-131.79c-2.917-16.084-2.534-38.785,15.836-55.606
			c8.874-8.138,17.977-12.097,27.836-12.097c28.075,0,58.532,30.772,67.865,42.582l7.688,9.17l23.266-0.048l7.172-9.084
			c9.371-11.857,39.828-42.629,67.903-42.629c9.859,0,18.963,3.959,27.837,12.097C379.954,73.258,385.318,91.207,381.331,113.239z"
			/>
	</g>
</g>
<g>
</g>
<g>
</g>
<g>
</g>
<g>
</g>
<g>
</g>
<g>
</g>
<g>
</g>
<g>
</g>
<g>
</g>
<g>
</g>
<g>
</g>
<g>
</g>
<g>
</g>
<g>
</g>
<g>
</g>
</svg>
